Coordinates
version=1
nRows=14
nColumns=24
inDegrees=yes

Units are S.I. units (second, meters, Newtons, ...)
Angles are in degrees.

endheader
time	pelvis_tilt	pelvis_list	pelvis_rotation	pelvis_tx	pelvis_ty	pelvis_tz	hip_flexion_r	hip_adduction_r	hip_rotation_r	knee_angle_r	ankle_angle_r	subtalar_angle_r	mtp_angle_r	hip_flexion_l	hip_adduction_l	hip_rotation_l	knee_angle_l	ankle_angle_l	subtalar_angle_l	mtp_angle_l	lumbar_extension	lumbar_bending	lumbar_rotation
      0.79566667	     -1.00467538	     -1.13315050	      1.36248494	     -0.47390533	      0.99908184	      0.34536717	     10.79312495	      5.63289038	     -5.30852638	    -13.81897823	      5.64596153	     -5.17480816	      6.87022621	     19.99177557	     -1.78681239	      2.01349789	    -67.78134540	     -5.33513773	     -7.56463392	      1.64829998	      0.36566935	      4.08095588	      2.40323632
      0.79983333	     -0.94884423	     -1.05641686	      1.23739940	     -0.46893619	      0.99977046	      0.34563424	     10.26059358	      5.58071669	     -5.26711111	    -13.53209676	      5.78720165	     -4.89381607	      6.88800541	     20.47291556	     -1.66386678	      2.02956646	    -67.51681741	     -4.70682353	     -7.78144882	      1.58811605	      0.24265880	      4.01102242	      2.62992388
      0.80400000	     -0.90617219	     -0.97526856	      1.10405682	     -0.46399043	      1.00040819	      0.34590902	      9.75287874	      5.52119686	     -5.22374258	    -13.26434126	      5.92212334	     -4.65379021	      6.90605128	     20.95538153	     -1.54218466	      2.02853741	    -67.20204713	     -4.09453066	     -8.00642697	      1.52011518	      0.14003740	      3.92418810	      2.79802307
      0.80816667	     -0.93570475	     -0.90176707	      0.98582173	     -0.45908115	      1.00089930	      0.34617443	      9.32124185	      5.47160010	     -5.15478394	    -12.98560117	      6.04604772	     -4.54096931	      6.91263054	     21.51745702	     -1.41882141	      2.05243214	    -66.85452594	     -3.55072904	     -8.22551637	      1.51132932	      0.13064778	      3.83046413	      2.84707869
      0.81233333	     -0.89542248	     -0.82912777	      0.79946568	     -0.45419715	      1.00140770	      0.34650949	      8.84737464	      5.42309308	     -5.07037748	    -12.77278572	      6.18449587	     -4.28459719	      6.92790699	     21.97835068	     -1.34064493	      1.97876973	    -66.46443894	     -2.90727331	     -8.37954471	      1.46485042	      0.00269518	      3.77175805	      3.05203061
      0.81650000	     -0.86862930	     -0.74413721	      0.65288012	     -0.44927794	      1.00190096	      0.34677432	      8.36339815	      5.35183385	     -5.03257387	    -12.50905043	      6.33111957	     -3.98232504	      6.94982990	     22.43716134	     -1.22174981	      1.96273121	    -66.00949017	     -2.37906707	     -8.49208615	      1.37479823	     -0.08447141	      3.68419461	      3.31171972
      0.82066667	     -0.86959819	     -0.67122254	      0.48919976	     -0.44442267	      1.00229878	      0.34705904	      7.92711981	      5.29833184	     -4.93565729	    -12.27605381	      6.45313372	     -3.81629937	      6.96135967	     22.92154925	     -1.12420390	      1.92763574	    -65.52546380	     -1.85059392	     -8.65167866	      1.33947487	     -0.15561962	      3.61393711	      3.39542305
      0.82483333	     -0.81611724	     -0.60005505	      0.33428346	     -0.43951792	      1.00273325	      0.34734456	      7.41595778	      5.24127288	     -4.88791521	    -12.01239679	      6.59960398	     -3.52962832	      6.98249846	     23.32465445	     -1.04071159	      1.88431287	    -64.98471099	     -1.36288961	     -8.69852956	      1.24878952	     -0.27574399	      3.53499403	      3.63438357
      0.82900000	     -0.84175943	     -0.53420236	      0.15206706	     -0.43467131	      1.00300189	      0.34764054	      7.01778361	      5.19010448	     -4.79459063	    -11.79767995	      6.72697488	     -3.33434108	      6.99728824	     23.80645523	     -0.96829534	      1.81895912	    -64.41507531	     -0.88897032	     -8.80070743	      1.19349641	     -0.30708856	      3.47638983	      3.74755615
      0.83316667	     -0.82832616	     -0.48044961	     -0.01132629	     -0.42983352	      1.00328626	      0.34791972	      6.56104628	      5.15192920	     -4.69649538	    -11.54583292	      6.85956421	     -3.13055160	      7.01079323	     24.23634667	     -0.90444602	      1.77616976	    -63.80690488	     -0.44759928	     -8.86414342	      1.14601913	     -0.40697612	      3.41226042	      3.87775403
      0.83733333	     -0.79323352	     -0.40940383	     -0.17306223	     -0.42494786	      1.00358261	      0.34817062	      6.08456724	      5.08277723	     -4.67115097	    -11.30584601	      6.99892181	     -2.82686435	      7.03636573	     24.61297046	     -0.82482178	      1.72257929	    -63.13140073	     -0.06346487	     -8.86637504	      1.02447469	     -0.50090866	      3.34587713	      4.13669342
      0.84150000	     -0.82162889	     -0.36674279	     -0.33542096	     -0.42012174	      1.00372065	      0.34843344	      5.67859213	      5.05254116	     -4.56672579	    -11.06118446	      7.12279838	     -2.67435656	      7.04681912	     25.06178486	     -0.77682518	      1.67592883	    -62.44536837	      0.30352915	     -8.93722917	      0.99551715	     -0.53775154	      3.29177041	      4.18513390
      0.84566667	     -0.76989354	     -0.32622055	     -0.51838101	     -0.41524567	      1.00394229	      0.34872753	      5.18387760	      5.01841132	     -4.50276632	    -10.81622945	      7.25214083	     -2.40641740	      7.06952075	     25.39198265	     -0.75670299	      1.58410582	    -61.70133132	      0.65811102	     -8.89231331	      0.89597728	     -0.65932865	      3.25374105	      4.40289593
      0.84983333	     -0.74961995	     -0.26643094	     -0.68528004	     -0.41038755	      1.00409614	      0.34895702	      4.72998368	      4.95601965	     -4.44789596	    -10.58172982	      7.37798256	     -2.13305393	      7.09983756	     25.73933005	     -0.69364255	      1.52316454	    -60.90630122	      0.95854428	     -8.89531099	      0.75947586	     -0.75088071	      3.19918232	      4.58074279
